# File created by Blade
# Date/Time:  Thu Jan 15 19:03:44 2015
#---------------------------------------------------------
:version 1.10
:name HOM
:units
  mass 1.0
  length 1.000000
  angle deg
:documentation
     Acclaim Skeleton File
:root
   axis xyz
   order TX TY TZ RX RY RZ
   position 0.000000 0.000000 0.000000
   orientation 0 0 0
:bonedata
   begin
      id 1
      name Spine_dum
      direction 0.000000 1.000000 0.000000
      length 4.354460
      axis 0.0 0.0 0.0 xyz
   end
   begin
      id 2
      name LeftUpLeg_dum
      direction 1.000000 0.000000 0.000000
      length 4.291077
      axis 0.0 0.0 0.0 xyz
   end
   begin
      id 3
      name RightUpLeg_dum
      direction -1.000000 0.000000 0.000000
      length 4.291077
      axis 0.0 0.0 0.0 xyz
   end
   begin
      id 4
      name Spine
      direction 0.000000 1.000000 0.000000
      length 0.000000
      axis 0.0 0.0 0.0 xyz
      dof rx ry rz
   end
   begin
      id 5
      name Spine_dum1
      direction 0.000000 1.000000 0.000000
      length 16.581769
      axis 0.0 0.0 0.0 xyz
   end
   begin
      id 6
      name Spine_dum2
      direction 0.000000 1.000000 0.000000
      length 12.903700
      axis 0.0 0.0 0.0 xyz
   end
   begin
      id 7
      name Spine_dum3
      direction 0.000000 1.000000 0.000000
      length 12.903700
      axis 0.0 0.0 0.0 xyz
   end
   begin
      id 8
      name Head
      direction 0.000000 1.000000 0.000000
      length 4.527550
      axis 0.0 0.0 0.0 xyz
      dof rx ry rz
   end
   begin
      id 9
      name LeftShoulder
      direction 1.000000 0.000000 0.000000
      length 6.942033
      axis 0.0 0.0 -90.0 xyz
      dof rx ry rz
   end
   begin
      id 10
      name LeftArm
      direction 1.000000 0.000000 0.000000
      length 11.010391
      axis 0.0 0.0 -90.0 xyz
      dof rx ry rz
   end
   begin
      id 11
      name LeftForeArm
      direction 1.000000 0.000000 0.000000
      length 8.054994
      axis 0.0 0.0 -90.0 xyz
      dof rz ry rx
   end
   begin
      id 12
      name LeftHand
      direction 0.000000 0.000000 0.000000
      length 0.000000
      axis 0.0 0.0 -90.0 xyz
      dof rx ry rz
   end
   begin
      id 13
      name LeftHand_dum1
      direction 0.000000 0.000000 0.000000
      length 0.000000
      axis 0.0 0.0 -90.0 xyz
   end
   begin
      id 14
      name LeftHand_dum2
      direction 1.000000 0.000000 0.000000
      length 3.937000
      axis 0.0 0.0 -90.0 xyz
   end
   begin
      id 15
      name LeftHandThumb1
      direction 0.000000 0.000000 1.000000
      length 3.937000
      axis 0.0 0.0 -90.0 xyz
      dof rx ry rz
   end
   begin
      id 16
      name RightShoulder
      direction -1.000000 0.000000 0.000000
      length 6.942033
      axis 0.0 0.0 90.0 xyz
      dof rx ry rz
   end
   begin
      id 17
      name RightArm
      direction -1.000000 0.000000 0.000000
      length 11.010391
      axis 0.0 0.0 90.0 xyz
      dof rx ry rz
   end
   begin
      id 18
      name RightForeArm
      direction -1.000000 0.000000 0.000000
      length 8.054994
      axis 0.0 0.0 90.0 xyz
      dof rz ry rx
   end
   begin
      id 19
      name RightHand
      direction 0.000000 0.000000 0.000000
      length 0.000000
      axis 0.0 0.0 90.0 xyz
      dof rx ry rz
   end
   begin
      id 20
      name RightHand_dum1
      direction 0.000000 0.000000 0.000000
      length 0.000000
      axis 0.0 0.0 90.0 xyz
   end
   begin
      id 21
      name RightHand_dum2
      direction -1.000000 0.000000 0.000000
      length 3.937000
      axis 0.0 0.0 90.0 xyz
   end
   begin
      id 22
      name RightHandThumb1
      direction 0.000000 0.000000 1.000000
      length 3.937000
      axis 0.0 0.0 90.0 xyz
      dof rx ry rz
   end
   begin
      id 23
      name LeftUpLeg
      direction 0.000000 -1.000000 0.000000
      length 17.039958
      axis 0.0 0.0 0.0 xyz
      dof rx ry rz
   end
   begin
      id 24
      name LeftLeg
      direction 0.000000 -1.000000 0.000000
      length 16.939743
      axis 0.0 0.0 0.0 xyz
      dof rx ry rz
   end
   begin
      id 25
      name LeftFoot
      direction 0.000000 -0.258819 0.965926
      length 5.235044
      axis 15.0 0.0 0.0 xyz
      dof rx ry rz
   end
   begin
      id 26
      name LeftToeBase
      direction 0.000000 0.000000 1.000000
      length 2.952750
      axis 0.0 0.0 0.0 xyz
      dof rx ry rz
   end
   begin
      id 27
      name RightUpLeg
      direction 0.000000 -1.000000 0.000000
      length 17.039958
      axis 0.0 0.0 0.0 xyz
      dof rx ry rz
   end
   begin
      id 28
      name RightLeg
      direction 0.000000 -1.000000 0.000000
      length 16.939743
      axis 0.0 0.0 0.0 xyz
      dof rx ry rz
   end
   begin
      id 29
      name RightFoot
      direction 0.000000 -0.258819 0.965926
      length 5.235044
      axis 15.0 0.0 0.0 xyz
      dof rx ry rz
   end
   begin
      id 30
      name RightToeBase
      direction 0.000000 0.000000 1.000000
      length 2.952750
      axis 0.0 0.0 0.0 xyz
      dof rx ry rz
   end
:hierarchy
   begin
      root Spine_dum LeftUpLeg_dum RightUpLeg_dum
      Spine_dum Spine
      LeftUpLeg_dum LeftUpLeg
      RightUpLeg_dum RightUpLeg
      Spine Spine_dum1 Spine_dum2 Spine_dum3
      Spine_dum1 Head
      Spine_dum2 LeftShoulder
      Spine_dum3 RightShoulder
      LeftShoulder LeftArm
      LeftArm LeftForeArm
      LeftForeArm LeftHand
      LeftHand LeftHand_dum1 LeftHand_dum2
      LeftHand_dum1 LeftHandThumb1
      RightShoulder RightArm
      RightArm RightForeArm
      RightForeArm RightHand
      RightHand RightHand_dum1 RightHand_dum2
      RightHand_dum1 RightHandThumb1
      LeftUpLeg LeftLeg
      LeftLeg LeftFoot
      LeftFoot LeftToeBase
      RightUpLeg RightLeg
      RightLeg RightFoot
      RightFoot RightToeBase
   end

# File created by Blade
# Date/Time:  Thu Jan 15 19:03:33 2015
# Frame Rate: 120.000 fps
#------------------------------------------------------
:FULLY-SPECIFIED
:DEGREES
2620
root 5.292252 27.779217 -5.482971 -175.939867 2.018215 -180.471116
Spine 18.129298 15.022547 -0.125051
Head 1.264012 -2.823728 10.072748
LeftShoulder 5.912902 4.706854 11.904167
LeftArm 62.063687 -26.571693 -31.721455
LeftForeArm -0.000000 17.415117 7.874950
LeftHand 3.967498 -0.000000 4.989610
LeftHandThumb1 -26.253704 33.147579 0.000000
RightShoulder -5.220734 11.071793 -11.971554
RightArm 41.689053 22.926567 42.312723
RightForeArm -0.000000 -43.067934 19.715834
RightHand -5.029681 -0.000000 2.832743
RightHandThumb1 -24.326973 -32.862282 -0.000000
LeftUpLeg -53.194280 21.977762 -8.095654
LeftLeg 90.405173 -0.000000 -0.000000
LeftFoot -30.871815 16.741785 -12.432665
LeftToeBase -6.412793 -0.000000 0.000000
RightUpLeg -53.709049 -14.736645 7.207992
RightLeg 91.615570 -0.000000 -0.000000
RightFoot -29.260229 -16.719012 15.153816
RightToeBase -11.843590 -0.000000 0.000000
2621
root 5.289194 28.108030 -5.526708 -175.904566 2.187286 -180.422966
Spine 17.621900 15.044224 -0.234913
Head 1.421821 -2.822300 10.129846
LeftShoulder 5.871098 4.546777 11.859731
LeftArm 61.743059 -26.747713 -32.238228
LeftForeArm -0.000000 17.227409 7.993458
LeftHand 3.827335 -0.000000 4.925042
LeftHandThumb1 -26.253704 33.147579 0.000000
RightShoulder -5.227305 11.112490 -11.939961
RightArm 41.410985 22.693771 42.418363
RightForeArm 0.000000 -42.905013 19.729778
RightHand -5.017196 -0.000000 2.776567
RightHandThumb1 -24.326973 -32.862282 -0.000000
LeftUpLeg -52.095227 21.938470 -7.923049
LeftLeg 88.653445 -0.000000 -0.000000
LeftFoot -30.824884 16.885773 -12.472142
LeftToeBase -5.739600 -0.000000 0.000000
RightUpLeg -52.651226 -14.470468 7.112014
RightLeg 89.887004 -0.000000 -0.000000
RightFoot -29.111941 -16.745002 15.225851
RightToeBase -11.310076 -0.000000 0.000000
2622
root 5.285260 28.435010 -5.570208 -175.881666 2.330147 -180.373363
Spine 17.139000 15.037288 -0.319922
Head 1.582861 -2.820354 10.176056
LeftShoulder 5.833535 4.422250 11.764410
LeftArm 61.399262 -26.922574 -32.563620
LeftForeArm -0.000000 16.686120 8.046727
LeftHand 3.934525 -0.000000 5.056700
LeftHandThumb1 -26.253704 33.147579 0.000000
RightShoulder -5.233479 11.083391 -11.908343
RightArm 41.185448 22.504256 42.532526
RightForeArm 0.000000 -42.661743 19.750899
RightHand -4.750439 -0.000000 2.224595
RightHandThumb1 -24.326973 -32.862282 -0.000000
LeftUpLeg -51.012233 21.930662 -7.769369
LeftLeg 86.906265 -0.000000 -0.000000
LeftFoot -30.720979 17.018048 -12.511352
LeftToeBase -5.054007 -0.000000 0.000000
RightUpLeg -51.584585 -14.274047 7.044494
RightLeg 88.127468 -0.000000 -0.000000
RightFoot -28.893583 -16.906755 15.166285
RightToeBase -10.813053 -0.000000 0.000000
2623
root 5.282647 28.757160 -5.611981 -175.837226 2.474113 -180.336724
Spine 16.639442 15.007911 -0.427790
Head 1.731076 -2.768603 10.208329
LeftShoulder 5.758791 4.338025 11.706182
LeftArm 61.328763 -27.334241 -33.386479
LeftForeArm -0.000000 16.450000 8.019905
LeftHand 3.700422 -0.000000 4.862716
LeftHandThumb1 -26.253704 33.147579 0.000000
RightShoulder -5.204800 11.087276 -11.889740
RightArm 40.955708 22.364786 42.682689
RightForeArm -0.000000 -42.757451 19.758965
RightHand -4.778414 -0.000000 2.565776
RightHandThumb1 -24.326973 -32.862282 -0.000000
LeftUpLeg -49.950812 21.917887 -7.643001
LeftLeg 85.137882 -0.000000 -0.000000
LeftFoot -30.632238 17.185681 -12.549013
LeftToeBase -4.306752 -0.000000 0.000000
RightUpLeg -50.530036 -14.057099 6.963045
RightLeg 86.352576 -0.000000 -0.000000
RightFoot -28.745364 -17.033958 15.130697
RightToeBase -10.154263 -0.000000 0.000000
2624
root 5.278899 29.075522 -5.651514 -175.783037 2.592496 -180.300255
Spine 16.146544 14.961049 -0.520392
Head 1.852760 -2.783824 10.213371
LeftShoulder 5.683275 4.262626 11.621759
LeftArm 61.053563 -27.541658 -33.687119
LeftForeArm -0.000000 15.826942 8.001944
LeftHand 3.427413 -0.000000 4.905678
LeftHandThumb1 -26.253704 33.147579 0.000000
RightShoulder -5.193232 11.086409 -11.855340
RightArm 40.737077 22.181090 42.729834
RightForeArm -0.000000 -42.676457 19.747372
RightHand -4.688200 0.000000 2.598688
RightHandThumb1 -24.326973 -32.862282 -0.000000
LeftUpLeg -48.923414 21.863609 -7.532062
LeftLeg 83.364220 -0.000000 -0.000000
LeftFoot -30.479123 17.360814 -12.639545
LeftToeBase -3.730124 -0.000000 0.000000
RightUpLeg -49.490008 -13.909433 6.893414
RightLeg 84.558865 -0.000000 -0.000000
RightFoot -28.638861 -17.121534 15.143738
RightToeBase -9.414184 -0.000000 0.000000
2625
root 5.277778 29.389280 -5.689433 -175.701102 2.681434 -180.236009
Spine 15.634200 14.853587 -0.601085
Head 1.963250 -2.722441 10.198570
LeftShoulder 5.556953 4.242889 11.567279
LeftArm 60.960648 -27.883662 -34.259741
LeftForeArm -0.000000 15.451515 7.900312
LeftHand 3.519263 -0.000000 4.890365
LeftHandThumb1 -26.253704 33.147579 0.000000
RightShoulder -5.177471 11.099015 -11.848934
RightArm 40.579589 22.064711 42.937500
RightForeArm -0.000000 -42.775785 19.724771
RightHand -4.552343 -0.000000 2.528288
RightHandThumb1 -24.326973 -32.862282 -0.000000
LeftUpLeg -47.925851 21.790359 -7.411989
LeftLeg 81.575818 -0.000000 -0.000000
LeftFoot -30.340767 17.573872 -12.699750
LeftToeBase -3.112675 -0.000000 0.000000
RightUpLeg -48.460600 -13.777382 6.872898
RightLeg 82.728270 -0.000000 -0.000000
RightFoot -28.527849 -17.267740 15.025257
RightToeBase -8.567542 -0.000000 0.000000
